<?xml version="1.0" encoding="UTF-8"?>
<svg width="24px" height="24px" viewBox="0 0 24 24" version="1.1" xmlns="http://www.w3.org/2000/svg">
    <path d="M18.4,4.9c-0.8,0.8-1.9,1.3-3.1,1.3c-1.2,0-2.3-0.5-3.1-1.3c-0.8-0.8-1.3-1.9-1.3-3.1c0-0.3,0-0.6,0.1-0.8
        C8.7,1.3,7,3.2,6.1,5.6C5.2,8,5.2,10.7,6.1,13.1c0.9,2.4,2.6,4.3,4.9,5.6c0.2,0.1,0.5,0.1,0.8,0.1c1.2,0,2.3-0.5,3.1-1.3
        c0.8-0.8,1.3-1.9,1.3-3.1c0-1.2-0.5-2.3-1.3-3.1c-0.8-0.8-1.9-1.3-3.1-1.3c-0.3,0-0.6,0-0.8,0.1c-2.3-0.9-4.2-2.6-5.6-4.9
        C4.1,3.9,4,3.6,4,3.3c0-1.2,0.5-2.3,1.3-3.1C6.1-0.6,7.2-1.1,8.4-1.1c1.2,0,2.3,0.5,3.1,1.3c0.8,0.8,1.3,1.9,1.3,3.1
        c0,0.3,0,0.6-0.1,0.8c2.3,0.9,4.2,2.6,5.6,4.9c0.9,2.4,0.9,5.1,0,7.5c-0.9,2.4-2.6,4.3-4.9,5.6c-0.2,0.1-0.5,0.1-0.8,0.1
        c-1.2,0-2.3-0.5-3.1-1.3c-0.8-0.8-1.3-1.9-1.3-3.1c0-1.2,0.5-2.3,1.3-3.1c0.8-0.8,1.9-1.3,3.1-1.3c0.3,0,0.6,0,0.8,0.1
        c2.3-0.9,4.2-2.6,5.6-4.9C19.7,6.7,19.8,6.4,19.8,6.1C19.8,4.9,19.3,3.8,18.4,4.9z" fill="#FF5733"/>
</svg>